<svg width="150" height="22" viewBox="0 0 150 22" fill="none" xmlns="http://www.w3.org/2000/svg">
<path fill-rule="evenodd" clip-rule="evenodd" d="M0 0H6.28671H9.42975H9.42995V21.9998H9.42975V22H0V18.8572H6.28671V3.14283H0V0ZM3.14325 6.28544H0V9.42827H3.14325V6.28544ZM3.14325 12.5713H0V15.7141H3.14325V12.5713ZM18.8595 0H15.7163H12.573V3.14283V6.28544V9.42827V9.42848H15.7163V9.42827H18.8598V9.42859H22.0031V3.14293H18.8598V6.28544H15.7163V3.14283H18.8595V0ZM22.0028 18.857V15.7141V12.5713H18.8595H12.573V12.5713H12.5728L12.5728 21.9998H12.5728V22H18.8593V18.8572H15.716V15.7141H18.8595V18.857H22.0028Z" fill="black"/>
</svg>
